<svg width="726" height="162" viewBox="0 0 726 162" fill="none" xmlns="http://www.w3.org/2000/svg">
<path d="M127.248 119.984C127.248 124.464 125.648 128.048 122.448 130.736C119.312 133.424 115.312 134.768 110.448 134.768C105.84 134.768 101.136 133.872 96.336 132.08V120.464H98.64C99.984 120.464 100.688 121.232 100.752 122.768L101.328 129.872C103.824 130.896 106.928 131.408 110.64 131.408C114.16 131.408 117.072 130.448 119.376 128.528C121.744 126.608 122.928 124.016 122.928 120.752C122.928 118.128 121.84 116.144 119.664 114.8C117.552 113.392 114.192 112.016 109.584 110.672C105.232 109.456 101.936 107.952 99.696 106.16C97.456 104.304 96.336 101.712 96.336 98.384C96.336 95.824 97.04 93.584 98.448 91.664C99.92 89.68 101.84 88.176 104.208 87.152C106.64 86.064 109.264 85.52 112.08 85.52C115.728 85.52 119.952 86.352 124.752 88.016V99.44H122.448C121.168 99.44 120.464 98.672 120.336 97.136L119.76 90.224C117.264 89.392 114.736 88.976 112.176 88.976C109.04 88.976 106.32 89.808 104.016 91.472C101.776 93.136 100.656 95.344 100.656 98.096C100.656 99.824 101.2 101.264 102.288 102.416C103.376 103.568 104.784 104.528 106.512 105.296C108.304 106 110.768 106.8 113.904 107.696C118.128 108.912 121.392 110.48 123.696 112.4C126.064 114.256 127.248 116.784 127.248 119.984ZM185.401 130.352C186.681 130.48 187.321 131.056 187.321 132.08V134H175.801V103.472C175.801 98.992 174.777 95.504 172.729 93.008C170.681 90.448 167.545 89.168 163.321 89.168C157.241 89.168 151.929 92.176 147.385 98.192V130.16L152.473 130.352C153.689 130.416 154.297 130.992 154.297 132.08V134H135.961V132.08C135.961 130.992 136.569 130.416 137.785 130.352L142.873 130.16V89.936L137.689 89.744C137.049 89.68 136.569 89.52 136.249 89.264C135.993 89.008 135.865 88.592 135.865 88.016V86.192H145.369C146.265 86.192 146.745 86.576 146.809 87.344L147.193 94.64C151.993 88.56 157.753 85.52 164.473 85.52C169.657 85.52 173.593 87.12 176.281 90.32C179.033 93.52 180.409 97.904 180.409 103.472V130.16L185.401 130.352ZM234.544 130.352C235.824 130.48 236.464 131.056 236.464 132.08V134H228.304C227.28 134 226.672 133.552 226.48 132.656L225.808 126.512C222.608 129.52 219.728 131.664 217.168 132.944C214.672 134.16 211.6 134.768 207.952 134.768C204.112 134.768 201.008 133.68 198.64 131.504C196.336 129.264 195.184 126.224 195.184 122.384C195.184 117.264 198.256 113.584 204.4 111.344C210.544 109.104 217.616 107.952 225.616 107.888V102.896C225.616 98.416 224.656 95.024 222.736 92.72C220.88 90.352 218.064 89.168 214.288 89.168C211.984 89.168 209.648 89.68 207.28 90.704C204.912 91.664 203.024 92.848 201.616 94.256C200.912 94.96 200.24 95.312 199.6 95.312C199.088 95.312 198.672 95.024 198.352 94.448L197.584 93.008C200.144 90.448 202.8 88.56 205.552 87.344C208.368 86.064 211.44 85.424 214.768 85.424C219.824 85.424 223.632 87.024 226.192 90.224C228.816 93.36 230.128 97.584 230.128 102.896V130.256L234.544 130.352ZM225.616 110.96C218.704 111.024 212.624 111.92 207.376 113.648C202.192 115.312 199.6 118.192 199.6 122.288C199.6 125.168 200.432 127.408 202.096 129.008C203.824 130.608 206.16 131.408 209.104 131.408C212.624 131.408 215.536 130.8 217.84 129.584C220.144 128.304 222.736 126.224 225.616 123.344V110.96ZM281.075 127.856C279.283 130.096 276.883 131.792 273.875 132.944C270.931 134.096 267.891 134.672 264.755 134.672C260.531 134.672 256.851 133.616 253.715 131.504C250.643 129.328 248.275 126.384 246.611 122.672C245.011 118.96 244.211 114.768 244.211 110.096C244.211 105.296 245.043 101.04 246.707 97.328C248.371 93.616 250.835 90.736 254.099 88.688C257.363 86.576 261.267 85.52 265.811 85.52C269.843 85.52 274.323 86.512 279.251 88.496V100.496H276.947C275.667 100.496 274.963 99.728 274.835 98.192C274.835 98 274.771 97.264 274.643 95.984C274.515 94.64 274.387 92.88 274.259 90.704C271.123 89.616 268.403 89.072 266.099 89.072C260.531 89.072 256.275 90.992 253.331 94.832C250.387 98.672 248.915 103.76 248.915 110.096C248.915 116.368 250.355 121.424 253.234 125.264C256.115 129.104 260.179 131.024 265.427 131.024C267.731 131.024 270.003 130.608 272.243 129.776C274.483 128.944 276.243 127.888 277.523 126.608C278.035 126.096 278.515 125.84 278.963 125.84C279.347 125.84 279.635 126 279.827 126.32L281.075 127.856ZM333.105 130.352C334.385 130.48 335.025 131.056 335.025 132.08V134H328.881C328.177 134 327.441 133.616 326.673 132.848L306.609 111.44C305.969 110.8 305.425 110.384 304.977 110.192C304.529 110 303.857 109.904 302.961 109.904H300.849V130.16L305.841 130.352C307.121 130.48 307.761 131.056 307.761 132.08V134H289.329V132.08C289.329 131.056 289.969 130.48 291.249 130.352L296.241 130.16V67.952L291.249 67.76C289.969 67.632 289.329 67.056 289.329 66.032V64.208H300.849V106.736H303.057C304.081 106.736 304.945 106.384 305.649 105.68L322.161 89.936L319.761 89.84C318.481 89.712 317.841 89.136 317.841 88.112V86.192H332.625V88.112C332.625 89.2 332.017 89.776 330.801 89.84L327.345 90.032L310.257 106.256C310.001 106.512 309.681 106.768 309.297 107.024C308.977 107.28 308.657 107.568 308.337 107.888C309.297 108.464 310.097 109.136 310.737 109.904L329.457 130.256L333.105 130.352ZM364.733 83.984C368.253 83.984 371.581 84.592 374.717 85.808C377.789 87.024 380.349 88.688 382.397 90.8C384.445 92.912 386.045 95.568 387.197 98.768C388.349 101.904 388.925 105.392 388.925 109.232C388.925 113.072 388.349 116.592 387.197 119.792C385.981 123.056 384.381 125.744 382.397 127.856C380.285 130.096 377.725 131.792 374.717 132.944C371.773 134.096 368.445 134.672 364.733 134.672C361.021 134.672 357.661 134.096 354.653 132.944C351.645 131.792 349.085 130.096 346.973 127.856C344.733 125.552 343.069 122.864 341.98 119.792C340.829 116.592 340.253 113.072 340.253 109.232C340.253 105.392 340.829 101.904 341.98 98.768C343.069 95.824 344.733 93.168 346.973 90.8C349.021 88.688 351.581 87.024 354.653 85.808C357.789 84.592 361.149 83.984 364.733 83.984ZM364.733 125.552C368.829 125.552 371.837 124.176 373.757 121.424C375.741 118.544 376.733 114.512 376.733 109.328C376.733 104.144 375.741 100.112 373.757 97.232C371.837 94.416 368.829 93.008 364.733 93.008C360.637 93.008 357.565 94.416 355.517 97.232C353.469 100.048 352.445 104.112 352.445 109.424C352.445 114.608 353.469 118.608 355.517 121.424C357.501 124.176 360.573 125.552 364.733 125.552ZM447.973 90.416C447.973 92.016 447.173 93.008 445.573 93.392C445.317 93.392 444.933 93.456 444.421 93.584C443.909 93.712 442.789 93.936 441.061 94.256L425.221 134H414.469L398.629 94.256C395.365 93.616 393.861 93.328 394.117 93.392C392.517 93.008 391.717 92.016 391.717 90.416V84.752H415.717V90.416C415.717 92.016 414.917 93.008 413.317 93.392L410.629 93.872L417.637 113.264C417.957 114.16 418.405 115.664 418.981 117.776C419.429 119.504 419.781 120.976 420.037 122.192C420.485 120.016 420.805 118.544 420.997 117.776C421.381 116.24 421.861 114.736 422.437 113.264L429.541 93.968C428.325 93.776 427.525 93.648 427.141 93.584C426.821 93.456 426.565 93.392 426.373 93.392C424.773 93.008 423.973 92.016 423.973 90.416V84.752H447.973V90.416ZM474.59 83.984C477.726 83.984 480.574 84.464 483.134 85.424C485.566 86.32 487.806 87.792 489.854 89.84C491.71 91.696 493.182 94.032 494.27 96.848C495.358 99.728 495.902 102.864 495.902 106.256C495.902 107.024 495.838 107.792 495.71 108.56C495.582 109.264 495.454 109.712 495.326 109.904C495.198 110.224 494.91 110.48 494.462 110.672C494.206 110.8 493.758 110.864 493.118 110.864H462.686C463.07 115.92 464.446 119.632 466.814 122C469.182 124.368 472.318 125.552 476.222 125.552C478.206 125.552 479.838 125.328 481.118 124.88C482.526 124.432 483.742 123.92 484.766 123.344C485.214 123.088 485.662 122.864 486.11 122.672C486.622 122.416 487.102 122.16 487.55 121.904C488.254 121.456 488.99 121.232 489.758 121.232C490.27 121.232 490.718 121.328 491.102 121.52C491.422 121.648 491.71 121.904 491.966 122.288L495.422 126.608C493.95 128.272 492.478 129.584 491.006 130.544C489.278 131.632 487.582 132.464 485.918 133.04C484.318 133.552 482.494 133.968 480.446 134.288C478.846 134.544 477.054 134.672 475.07 134.672C471.55 134.672 468.382 134.128 465.566 133.04C462.75 131.952 460.19 130.256 457.886 127.952C455.71 125.776 453.982 123.024 452.702 119.696C451.486 116.496 450.878 112.688 450.878 108.272C450.878 105.072 451.422 101.936 452.51 98.864C453.534 95.984 455.102 93.392 457.214 91.088C459.198 88.912 461.662 87.184 464.606 85.904C467.55 84.624 470.878 83.984 474.59 83.984ZM474.781 92.432C471.39 92.432 468.702 93.424 466.718 95.408C464.798 97.328 463.55 100.08 462.974 103.664H485.246C485.246 102.32 485.022 100.88 484.574 99.344C484.19 98.128 483.55 96.944 482.654 95.792C481.822 94.768 480.734 93.968 479.39 93.392C477.918 92.752 476.382 92.432 474.781 92.432ZM531.808 83.888C534.304 83.888 536.32 84.432 537.856 85.52L536.32 94.448C536.256 95.024 536.064 95.408 535.744 95.6C535.36 95.856 534.912 95.984 534.4 95.984C533.952 95.984 533.312 95.888 532.48 95.696C531.328 95.44 530.208 95.312 529.12 95.312C526.624 95.312 524.512 95.984 522.784 97.328C521.184 98.544 519.712 100.56 518.368 103.376V124.496L523.168 125.36C524.768 125.744 525.568 126.736 525.568 128.336V134H499.264V128.336C499.264 126.736 500.064 125.744 501.664 125.36L506.464 124.496V94.256L501.664 93.392C500.064 93.008 499.264 92.016 499.264 90.416V84.752H513.472C514.688 84.752 515.52 84.976 515.968 85.424C516.416 85.872 516.736 86.64 516.928 87.728L517.696 93.68C519.424 90.544 521.472 88.144 523.84 86.48C526.272 84.752 528.928 83.888 531.808 83.888ZM564.98 125.36C566.58 125.744 567.38 126.736 567.38 128.336V134H540.98V128.336C540.98 126.736 541.78 125.744 543.38 125.36L543.956 125.264L545.396 124.976L548.276 124.496V72.176L545.396 71.696C545.076 71.632 544.788 71.568 544.532 71.504C544.34 71.44 544.148 71.408 543.956 71.408L543.38 71.312C541.78 70.928 540.98 69.936 540.98 68.336V62.672H560.084V124.496L562.964 124.976L564.404 125.264L564.98 125.36ZM594.889 83.984C598.409 83.984 601.737 84.592 604.873 85.808C607.945 87.024 610.505 88.688 612.553 90.8C614.601 92.912 616.201 95.568 617.353 98.768C618.505 101.904 619.081 105.392 619.081 109.232C619.081 113.072 618.505 116.592 617.353 119.792C616.137 123.056 614.537 125.744 612.553 127.856C610.441 130.096 607.881 131.792 604.873 132.944C601.929 134.096 598.601 134.672 594.889 134.672C591.177 134.672 587.817 134.096 584.809 132.944C581.801 131.792 579.241 130.096 577.129 127.856C574.889 125.552 573.225 122.864 572.137 119.792C570.985 116.592 570.409 113.072 570.409 109.232C570.409 105.392 570.985 101.904 572.137 98.768C573.225 95.824 574.889 93.168 577.129 90.8C579.177 88.688 581.737 87.024 584.809 85.808C587.945 84.592 591.305 83.984 594.889 83.984ZM594.889 125.552C598.985 125.552 601.993 124.176 603.913 121.424C605.897 118.544 606.889 114.512 606.889 109.328C606.889 104.144 605.897 100.112 603.913 97.232C601.993 94.416 598.985 93.008 594.889 93.008C590.793 93.008 587.721 94.416 585.673 97.232C583.625 100.048 582.601 104.112 582.601 109.424C582.601 114.608 583.625 118.608 585.673 121.424C587.657 124.176 590.729 125.552 594.889 125.552ZM666.513 125.264C668.113 125.648 668.913 126.64 668.913 128.24V133.904H657.585C656.369 133.904 655.473 133.744 654.897 133.424C654.257 133.168 653.777 132.464 653.457 131.312L652.401 127.856C651.121 129.072 649.905 130.064 648.753 130.832C647.857 131.472 646.609 132.176 645.009 132.944C643.857 133.456 642.513 133.872 640.977 134.192C639.377 134.512 637.777 134.672 636.177 134.672C634.065 134.672 632.145 134.384 630.417 133.808C628.561 133.168 627.057 132.336 625.905 131.312C624.561 130.096 623.569 128.688 622.929 127.088C622.225 125.36 621.873 123.44 621.873 121.328C621.873 119.408 622.353 117.552 623.313 115.76C624.273 113.904 625.905 112.272 628.209 110.864C630.641 109.328 633.649 108.112 637.233 107.216C641.009 106.256 645.713 105.776 651.345 105.776V102.896C651.345 99.696 650.641 97.232 649.233 95.504C647.889 93.904 645.873 93.104 643.185 93.104C641.137 93.104 639.537 93.328 638.385 93.776C636.913 94.352 635.793 94.864 635.025 95.312L632.433 96.752C631.729 97.2 630.865 97.424 629.841 97.424C629.009 97.424 628.305 97.232 627.729 96.848C627.345 96.592 626.897 96.08 626.385 95.312L624.177 91.568C629.937 86.32 636.753 83.696 644.625 83.696C647.505 83.696 650.097 84.176 652.401 85.136C654.641 86.096 656.529 87.408 658.065 89.072C659.793 91.056 661.009 93.072 661.713 95.12C662.481 97.424 662.865 99.984 662.865 102.8V124.592L665.457 125.072L666.513 125.264ZM651.345 112.976C647.761 112.976 644.881 113.2 642.705 113.648C640.337 114.16 638.449 114.736 637.041 115.376C635.633 116.016 634.641 116.784 634.065 117.68C633.489 118.512 633.201 119.504 633.201 120.656C633.201 122.832 633.809 124.336 635.025 125.168C636.305 126.064 637.905 126.512 639.825 126.512C641.041 126.512 642.161 126.416 643.185 126.224C644.273 126.032 645.265 125.68 646.161 125.168C647.313 124.528 648.177 123.984 648.753 123.536C649.649 122.832 650.513 122.064 651.345 121.232V112.976ZM710.144 133.808C709.44 133.808 708.8 133.616 708.224 133.232C707.712 132.912 707.36 132.368 707.168 131.6L706.208 127.088C704.288 129.264 702.016 131.088 699.392 132.56C696.832 133.968 693.792 134.672 690.272 134.672C687.52 134.672 685.088 134.128 682.976 133.04C680.736 131.888 678.816 130.256 677.216 128.144C675.616 126.096 674.368 123.472 673.472 120.272C672.576 117.008 672.128 113.424 672.128 109.52C672.128 105.872 672.608 102.48 673.568 99.344C674.464 96.4 675.904 93.68 677.888 91.184C679.616 89.008 681.824 87.216 684.512 85.808C687.072 84.464 689.984 83.792 693.248 83.792C696 83.792 698.368 84.24 700.352 85.136C702.464 86.096 704.192 87.248 705.536 88.592V72.176L702.752 71.696C702.432 71.632 702.144 71.568 701.888 71.504C701.696 71.44 701.504 71.408 701.312 71.408L700.736 71.312C699.136 70.928 698.336 69.936 698.336 68.336V62.672H717.44V124.4L719.936 124.784L721.184 125.072L721.76 125.168C723.36 125.552 724.16 126.544 724.16 128.144V133.808H710.144ZM705.632 97.328C704.352 95.728 702.88 94.576 701.216 93.872C699.488 93.168 697.76 92.816 696.031 92.816C694.368 92.816 692.768 93.168 691.232 93.872C689.824 94.512 688.576 95.536 687.488 96.944C686.528 98.288 685.76 100.016 685.184 102.128C684.672 103.984 684.416 106.448 684.416 109.52C684.416 112.592 684.64 115.056 685.088 116.912C685.536 118.832 686.208 120.432 687.104 121.712C688 123.056 689.024 123.984 690.176 124.496C691.392 125.072 692.8 125.36 694.4 125.36C696.96 125.36 699.072 124.848 700.736 123.824C702.528 122.736 704.16 121.264 705.632 119.408V97.328Z" fill="black"/>
<path d="M0 124H76V132C76 133.105 75.1046 134 74 134H2C0.895432 134 0 133.105 0 132V124Z" fill="#5D6263"/>
<path d="M0 106C0 104.895 0.895431 104 2 104H8C9.10457 104 10 104.895 10 106V124H0V106Z" fill="#5D6263"/>
<path d="M66 106C66 104.895 66.8954 104 68 104H74C75.1046 104 76 104.895 76 106V124H66V106Z" fill="#5D6263"/>
<path d="M17 100H60V100C60 104.418 56.4183 108 52 108H25C20.5817 108 17 104.418 17 100V100Z" fill="#B78843"/>
<ellipse cx="50.7792" cy="47.8326" rx="21.5" ry="3.5" transform="rotate(20.5752 50.7792 47.8326)" fill="#E85B5B"/>
<path d="M50.2445 19.5983L56.2853 27.0325L69.8619 36.4495L72.577 41.8348L79.7968 46.4489L73.9729 48.2914L68.0654 40.3298L60.2212 34.4998L49.6127 24.8611L44.4206 21.4408L50.2445 19.5983Z" fill="#6EC28B"/>
<rect x="15.7496" y="78.1256" width="49" height="8.14588" rx="4.07294" transform="rotate(5.28021 15.7496 78.1256)" fill="#534126"/>
<path d="M68.4206 5.7915C76.0625 2.59294 84.8504 6.19497 88.049 13.8369L93.0683 25.8288C96.2668 33.4707 92.6648 42.2586 85.0229 45.4571V45.4571L68.4206 5.7915V5.7915Z" fill="#B78843"/>
<ellipse cx="77.066" cy="10.5103" rx="1" ry="2" transform="rotate(44.7236 77.066 10.5103)" fill="white"/>
<ellipse cx="88.2629" cy="37.2615" rx="1" ry="2" transform="rotate(44.7236 88.2629 37.2615)" fill="white"/>
<ellipse cx="87.0837" cy="21.4942" rx="1" ry="2" transform="rotate(44.7236 87.0837 21.4942)" fill="white"/>
<ellipse cx="78.3099" cy="18.6622" rx="1" ry="2" transform="rotate(44.7236 78.3099 18.6622)" fill="white"/>
<ellipse cx="81.3778" cy="13.0418" rx="1" ry="2" transform="rotate(44.7236 81.3778 13.0418)" fill="white"/>
<path d="M46.3603 58.5476L65.4206 69L37.5316 75.9391L24.5188 53.8153L46.3603 58.5476Z" fill="#F8BC23"/>
</svg>
